<?xml version="1.0" encoding="UTF-8"?>
<svg width="28px" height="28px" viewBox="0 0 28 28" version="1.1" xmlns="http://www.w3.org/2000/svg" xmlns:xlink="http://www.w3.org/1999/xlink">
    <!-- Generator: Sketch 64 (93537) - https://sketch.com -->
    <title>information-blend</title>
    <desc>Created with Sketch.</desc>
    <g id="Page-1" stroke="none" stroke-width="1" fill="none" fill-rule="evenodd">
        <g id="DelmoLanding" transform="translate(-444.000000, -382.000000)">
            <g id="Body" transform="translate(413.000000, 235.000000)">
                <g id="About-Me" transform="translate(0.000000, 140.000000)">
                    <g id="information-blend" transform="translate(27.000000, 2.000000)">
                        <rect id="Rectangle" x="0" y="0" width="37" height="37"></rect>
                        <path d="M4.26708217,16.0212239 C4.56802036,14.6433249 5.0843507,13.287791 5.82857008,12.0011724 C9.70117229,5.30618271 18.2780743,3.0123232 24.9855694,6.8776694 C31.6932204,10.7430156 33.9914327,19.3038318 30.1187993,25.9987592 C26.5638861,32.1446671 19.0447164,34.5816605 12.6464959,31.9502551 C12.406858,31.8516494 12.0721221,31.6902096 11.764094,31.5360798 C11.3149072,31.311184 11.1412752,30.7648085 11.3664685,30.3164166 C11.5970689,29.8571377 12.1583381,29.672524 12.6266287,29.8852885 C13.1614395,30.1283813 13.8571672,30.4209325 14.4236565,30.5791061 C15.5554041,30.9268703 16.7577233,31.1139724 18.0036725,31.1139724 C24.716154,31.1139724 30.1577547,25.6825675 30.1577547,18.9826631 C30.1577547,12.2827587 24.716154,6.8513849 18.0036725,6.8513849 C11.5847434,6.8513849 6.32800937,11.8180674 5.88047425,18.1112307 C5.86699568,18.2067259 5.85417157,18.299266 5.84207981,18.3874513 C5.7746714,18.879858 5.33475596,19.2367985 4.83855776,19.1960497 C4.34158046,19.155301 3.9663933,18.729772 4.00238808,18.233477 C4.05232889,17.5443253 4.13832681,16.6106811 4.26708217,16.0212239 Z M6.28476888,22.2113022 C6.20251068,21.9515678 6.12335332,21.6891893 6.0541218,21.4537175 C5.91477057,20.9798188 5.43058622,20.6911558 4.94858337,20.8028261 C4.46985277,20.9135632 4.16268172,21.3804631 4.2633892,21.860583 C4.34958969,22.2714922 4.45587558,22.7410361 4.55108256,23.0552059 C4.98795948,24.4968098 5.65694821,25.8699807 6.54170306,27.1135954 C6.90950428,27.6304203 7.9035368,28.6485171 8.5486225,29.2924097 C8.87950959,29.622599 9.4073084,29.6406405 9.764654,29.3390686 C10.1780798,28.9902157 10.1976354,28.3601652 9.81454806,27.9784956 C9.18870633,27.3548218 8.36187035,26.4962984 8.21299843,26.1721747 C7.34462042,24.9960598 6.68389024,23.6578831 6.28476888,22.2113022 Z" id="Shape" fill="#92A7E9"></path>
                        <path d="M18.5,11 C17.67155,11 17,11.67158 17,12.5 C17,13.32842 17.67155,14 18.5,14 C19.32845,14 20,13.32842 20,12.5 C20,11.67158 19.32845,11 18.5,11 Z M18.5,15.5 C17.67155,15.5 17,16.17155 17,17 L17,24.5 C17,25.32845 17.67155,26 18.5,26 C19.32845,26 20,25.32845 20,24.5 L20,17 C20,16.17155 19.32845,15.5 18.5,15.5 Z" id="Shape" fill="#92A7E9"></path>
                    </g>
                </g>
            </g>
        </g>
    </g>
</svg>