<?xml version="1.0" encoding="UTF-8"?>
<svg width="37px" height="37px" viewBox="0 0 37 37" version="1.1" xmlns="http://www.w3.org/2000/svg" xmlns:xlink="http://www.w3.org/1999/xlink">
    <title>message-communication</title>
    <g id="Page-1" stroke="none" stroke-width="1" fill="none" fill-rule="evenodd">
        <g id="DelmoLanding" transform="translate(-609.000000, -1254.000000)">
            <g id="Body" transform="translate(413.000000, 235.000000)">
                <g id="Contact" transform="translate(0.000000, 985.000000)">
                    <g id="message-communication" transform="translate(196.000000, 34.000000)">
                        <rect id="Rectangle" x="0" y="0" width="37" height="37"></rect>
                        <path d="M4.625,4.625 C3.77356833,4.625 3.08333333,5.315235 3.08333333,6.16666667 L3.08333333,24.6666667 C3.08333333,25.5181292 3.77356833,26.2083333 4.625,26.2083333 L10.7916667,26.2083333 L10.7916667,31.8021167 C10.7916667,32.4291125 11.50034,32.7938708 12.0105392,32.4294208 L20.72,26.2083333 L32.375,26.2083333 C33.2264625,26.2083333 33.9166667,25.5181292 33.9166667,24.6666667 L33.9166667,6.16666667 C33.9166667,5.315235 33.2264625,4.625 32.375,4.625 L4.625,4.625 Z M4.93333333,7.09166667 C4.93333333,6.75109708 5.20943042,6.475 5.55,6.475 L31.45,6.475 C31.7905542,6.475 32.0666667,6.75109708 32.0666667,7.09166667 L32.0666667,23.7416667 C32.0666667,24.0822208 31.7905542,24.3583333 31.45,24.3583333 L20.1095,24.3583333 L12.6416667,29.6925 L12.6416667,24.3583333 L5.55,24.3583333 C5.20943042,24.3583333 4.93333333,24.0822208 4.93333333,23.7416667 L4.93333333,7.09166667 Z" id="Shape" fill="#92A7E9"></path>
                    </g>
                </g>
            </g>
        </g>
    </g>
</svg>