<?xml version="1.0" encoding="UTF-8"?>
<svg width="40px" height="39px" viewBox="0 0 40 39" version="1.1" xmlns="http://www.w3.org/2000/svg" xmlns:xlink="http://www.w3.org/1999/xlink">
    <!-- Generator: Sketch 64 (93537) - https://sketch.com -->
    <title>Octicons-mark-github</title>
    <desc>Created with Sketch.</desc>
    <g id="Page-1" stroke="none" stroke-width="1" fill="none" fill-rule="evenodd">
        <g id="DelmoLanding" transform="translate(-1183.000000, -63.000000)" fill="#92A7E9">
            <g id="Header" transform="translate(150.000000, 41.000000)">
                <g id="Twitter-GitHub" transform="translate(1033.000000, 0.000000)">
                    <g id="Octicons-mark-github" transform="translate(-0.000000, 22.000000)">
                        <path d="M20,0 C8.95,0 0,8.95 0,20 C0,28.85 5.725,36.325 13.675,38.975 C14.675,39.15 15.05,38.55 15.05,38.025 C15.05,37.55 15.025,35.975 15.025,34.3 C10,35.225 8.7,33.075 8.3,31.95 C8.075,31.375 7.1,29.6 6.25,29.125 C5.55,28.75 4.55,27.825 6.225,27.8 C7.8,27.775 8.925,29.25 9.3,29.85 C11.1,32.875 13.975,32.025 15.125,31.5 C15.3,30.2 15.825,29.325 16.4,28.825 C11.95,28.325 7.3,26.6 7.3,18.95 C7.3,16.775 8.075,14.975 9.35,13.575 C9.15,13.075 8.45,11.025 9.55,8.275 C9.55,8.275 11.225,7.75 15.05,10.325 C16.65,9.875 18.35,9.65 20.05,9.65 C21.75,9.65 23.45,9.875 25.05,10.325 C28.875,7.725 30.55,8.275 30.55,8.275 C31.65,11.025 30.95,13.075 30.75,13.575 C32.025,14.975 32.8,16.75 32.8,18.95 C32.8,26.625 28.125,28.325 23.675,28.825 C24.4,29.45 25.025,30.65 25.025,32.525 C25.025,35.2 25,37.35 25,38.025 C25,38.55 25.375,39.175 26.375,38.975 C34.275,36.325 40,28.825 40,20 C40,8.95 31.05,0 20,0 Z" id="Path"></path>
                    </g>
                </g>
            </g>
        </g>
    </g>
</svg>