<?xml version="1.0" encoding="UTF-8"?>
<svg width="37px" height="37px" viewBox="0 0 37 37" version="1.1" xmlns="http://www.w3.org/2000/svg" xmlns:xlink="http://www.w3.org/1999/xlink">
    <title>arrow</title>
    <g id="Page-1" stroke="none" stroke-width="1" fill="none" fill-rule="evenodd">
        <g id="DelmoLanding" transform="translate(-579.000000, -1099.000000)">
            <g id="Body" transform="translate(413.000000, 235.000000)">
                <g id="My-Projects" transform="translate(0.000000, 830.000000)">
                    <g id="arrow" transform="translate(166.000000, 34.000000)">
                        <rect id="Rectangle" x="0" y="0" width="37" height="37"></rect>
                        <path d="M32.1721167,17.7353333 C32.5111292,18.3231708 32.4291125,19.085525 31.9259125,19.588725 L22.6759125,28.838725 C22.3675792,29.1316417 21.9821625,29.2858083 21.5813292,29.2858083 C21.1804958,29.2858083 20.7950792,29.1316417 20.4867458,28.838725 C19.8854958,28.237475 19.8854958,27.266225 20.4867458,26.664975 L27.1159125,20.0358083 L6.16478583,20.0358083 C5.31686917,20.0358083 4.62311917,19.3420583 4.62311917,18.4941417 C4.62311917,17.646225 5.31686917,16.952475 6.16478583,16.952475 L27.1160667,16.952475 L20.5021625,10.3386633 C19.9009125,9.73741333 19.9009125,8.76616333 20.5021625,8.16491333 C21.1034125,7.56366333 22.0746625,7.56366333 22.6759125,8.16491333 L31.8529917,17.3420542 C31.9797167,17.4544417 32.0877875,17.5873333 32.1721167,17.7353333 Z" id="Path" fill="#92A7E9"></path>
                    </g>
                </g>
            </g>
        </g>
    </g>
</svg>