<?xml version="1.0" encoding="UTF-8"?>
<svg width="29px" height="29px" viewBox="0 0 29 29" version="1.1" xmlns="http://www.w3.org/2000/svg" xmlns:xlink="http://www.w3.org/1999/xlink">
    <!-- Generator: Sketch 64 (93537) - https://sketch.com -->
    <title>bookmark-web</title>
    <desc>Created with Sketch.</desc>
    <g id="Page-1" stroke="none" stroke-width="1" fill="none" fill-rule="evenodd">
        <g id="DelmoLanding" transform="translate(-580.000000, -628.000000)">
            <g id="Body" transform="translate(413.000000, 235.000000)">
                <g id="My-Services" transform="translate(0.000000, 355.000000)">
                    <g id="bookmark-web" transform="translate(163.000000, 34.000000)">
                        <rect id="Rectangle" x="0" y="0" width="37" height="37"></rect>
                        <path d="M22.0888458,4.61365333 C21.6799958,4.61365333 21.28795,4.77608333 20.9987333,5.06519208 L5.09849208,20.9654333 C4.49644042,21.5676083 4.49644042,22.5436375 5.09849208,23.1458125 L13.8194692,31.8667125 C14.4215362,32.4687333 15.3976579,32.4687333 15.999725,31.8667125 L31.9000125,15.966425 C32.189075,15.6773625 32.3515667,15.2851779 32.3515667,14.8762971 L32.3515667,6.15532 C32.3515667,5.30388833 31.6613625,4.61365333 30.8099,4.61365333 L22.0888458,4.61365333 Z M22.5980583,6.40112333 C22.3936333,6.40112333 22.1976875,6.48232292 22.0530792,6.626885 L7.12612292,21.5538875 C6.82509708,21.8548208 6.82509708,22.3429125 7.12612292,22.644 L14.3209271,29.8388042 C14.6219683,30.1397375 15.1100292,30.1397375 15.411055,29.8388042 L30.3379958,14.9118171 C30.4826042,14.7672704 30.5636958,14.5712012 30.5636958,14.3667608 L30.5636958,7.17195667 C30.5636958,6.74622542 30.2186708,6.40112333 29.7928625,6.40112333 L22.5980583,6.40112333 Z M22.496925,14.4680329 C23.7009667,15.6721208 25.6531792,15.6721208 26.857375,14.4680329 C28.0614167,13.2639142 28.0614167,11.3116554 26.857375,10.1075367 C25.6531792,8.90341792 23.7009667,8.90341792 22.496925,10.1075367 C21.2927292,11.3116554 21.2927292,13.2639142 22.496925,14.4680329 Z M25.7672625,13.377905 C25.1650875,13.9799567 24.1890583,13.9799567 23.5870375,13.377905 C22.9848625,12.7758533 22.9848625,11.7997163 23.5870375,11.1976646 C24.1890583,10.5955975 25.1650875,10.5955975 25.7672625,11.1976646 C26.3692833,11.7997163 26.3692833,12.7758533 25.7672625,13.377905 Z" id="Shape" fill="#92A7E9"></path>
                    </g>
                </g>
            </g>
        </g>
    </g>
</svg>