<?xml version="1.0" encoding="UTF-8"?>
<svg width="191px" height="87px" viewBox="0 0 191 87" version="1.1" xmlns="http://www.w3.org/2000/svg" xmlns:xlink="http://www.w3.org/1999/xlink">
    <title>main-logo</title>
    <g id="Page-1" stroke="none" stroke-width="1" fill="none" fill-rule="evenodd">
        <g id="DelmoProjects" transform="translate(-1005.000000, -584.000000)" fill-rule="nonzero">
            <g id="Body" transform="translate(165.000000, 265.000000)">
                <g id="Project-Boxes" transform="translate(0.000000, 250.000000)">
                    <g id="top">
                        <g id="The-Bot-Talk" transform="translate(760.000000, 0.000000)">
                            <g id="main-logo" transform="translate(80.000000, 69.000000)">
                                <polygon id="Rectangle" fill="#FFC37F" transform="translate(91.554242, 9.418873) rotate(-32.840000) translate(-91.554242, -9.418873) " points="90.5105215 1.7700355 92.5979634 1.7700355 92.5979634 17.0677099 90.5105215 17.0677099"></polygon>
                                <path d="M97.9665116,16.9246512 L92.2976744,16.9246512 C91.877446,17.0551665 91.4208316,16.9024083 91.1637364,16.5452973 C90.9066412,16.1881864 90.9066412,15.7066973 91.1637364,15.3495864 C91.4208316,14.9924755 91.877446,14.8397172 92.2976744,14.9702326 L97.9665116,14.9702326 C98.3945592,15.1031764 98.6862638,15.4992246 98.6862638,15.9474419 C98.6862638,16.3956592 98.3945592,16.7917073 97.9665116,16.9246512" id="Path" fill="#FD8802"></path>
                                <path d="M99.7162791,23.2586047 L90.5069767,23.2586047 C88.811591,23.2586047 87.4372093,21.884223 87.4372093,20.1888372 L87.4372093,19.0632558 C87.4372093,17.3678701 88.811591,15.9934884 90.5069767,15.9934884 L99.7162791,15.9934884 C101.411665,15.9934884 102.786047,17.3678701 102.786047,19.0632558 L102.786047,20.147907 C102.786047,21.8432927 101.411665,23.2176744 99.7162791,23.2176744" id="Path" fill="#EB7F00"></path>
                                <polygon id="Rectangle" fill="#FFC37F" transform="translate(81.399386, 6.008660) rotate(-32.735226) translate(-81.399386, -6.008660) " points="73.7612647 4.96640177 89.0375074 4.96640177 89.0375074 7.05091916 73.7612647 7.05091916"></polygon>
                                <path d="M89.3507202,2.35348837 C89.3563367,3.65891745 88.3026529,4.72175037 86.9972239,4.72742009 C85.6917948,4.73304463 84.6289553,3.67936754 84.6232774,2.37393853 C84.6176448,1.06850952 85.6713152,0.00566343995 86.9767442,-4.54416866e-16 C88.2782056,-4.54416866e-16 89.3348311,1.05203919 89.3404651,2.35348837" id="Path" fill="#EB7F00"></path>
                                <path d="M79.8139616,11.0613953 C79.8180918,13.6913171 78.2365031,16.0643899 75.8075618,17.07273 C73.3786205,18.0810701 70.5813753,17.5258073 68.7217375,15.6661695 C66.8620997,13.8065317 66.3068369,11.0092864 67.3151769,8.58034517 C68.323517,6.1514039 70.6965899,4.56981513 73.3265116,4.57394539 C75.0470882,4.57394539 76.6971944,5.25744986 77.9138258,6.47408122 C79.1304571,7.69071257 79.8139616,9.34081879 79.8139616,11.0613953" id="Path" fill="#EB7F00"></path>
                                <path d="M121.501395,83.3748837 L121.501395,39.3748837 C121.495746,27.8559082 112.156186,18.5209302 100.637209,18.5209302 L89.6167442,18.5209302 C78.0937724,18.5209302 68.7525581,27.8621445 68.7525581,39.3851163 L68.7525581,83.0781395 L121.501395,83.3748837 Z" id="Path" fill="#F89533"></path>
                                <path d="M133.483721,56.5348837 L133.483721,61.1395349 C132.233652,61.3514586 131.168968,62.1672057 130.63907,63.3190698 C130.018967,64.5928327 129.710339,65.9956889 129.738605,67.412093 C129.738605,70.8809302 131.253023,73.3776744 133.483721,73.6846512 L133.483721,78.2893023 L152.465116,78.2893023 L152.465116,56.5348837 L133.483721,56.5348837 Z M132,67.412093 C131.96817,66.3532756 132.185479,65.301784 132.634419,64.3423256 C132.818724,63.9419515 133.127364,63.6117782 133.514419,63.4009302 L133.514419,71.3618605 C132.552558,70.9218605 132,69.1311628 132,67.3916279" id="Shape" fill="#EB7F00"></path>
                                <path d="M56.1051163,75.5572093 L46.6706977,75.5572093 L46.6706977,66.7060465 C49.8141059,66.4095292 52.7334854,64.9498394 54.8567442,62.6130233 C55.4197478,61.9807779 55.9200765,61.2953961 56.3506977,60.5665116 C57.903584,57.9439062 58.5642171,54.8884782 58.2334884,51.8586047 C58.1932752,51.472924 57.9503586,51.1379938 57.5962427,50.9799791 C57.2421269,50.8219644 56.8306105,50.8648713 56.5167078,51.0925372 C56.2028052,51.3202032 56.0342055,51.6980403 56.0744186,52.0837209 C56.3802562,54.8143238 55.7292914,57.5664585 54.2325581,59.8706977 C53.9445762,60.3045483 53.6229673,60.7151128 53.2706977,61.0986047 C51.1949525,63.3367625 48.2804582,64.6087441 45.227907,64.6087441 C42.1753558,64.6087441 39.2608615,63.3367625 37.1851163,61.0986047 C35.0060096,58.6185794 33.9765153,55.3331176 34.3506977,52.0530233 C34.4303001,51.6460674 34.2731695,51.2290618 33.9448042,50.975831 C33.6164389,50.7226002 33.1731919,50.6766028 32.7998261,50.8570125 C32.4264604,51.0374222 32.1870518,51.4132775 32.1813953,51.827907 C31.7419945,55.7238321 32.9725431,59.6236675 35.5683721,62.5618605 C37.6904143,64.9002816 40.6104564,66.3603026 43.7544186,66.6548837 L43.7544186,75.5060465 L34.3302326,75.5060465 C33.52775,75.5060465 32.8772093,76.1565872 32.8772093,76.9590698 C32.8772093,77.7615524 33.52775,78.412093 34.3302326,78.412093 L56.1051163,78.412093 C56.9075989,78.412093 57.5581395,77.7615524 57.5581395,76.9590698 C57.5581395,76.1565872 56.9075989,75.5060465 56.1051163,75.5060465" id="Path" fill="#A99079"></path>
                                <path d="M58.3767442,41.104186 C56.9238959,39.6501419 54.9526928,38.8331678 52.8972093,38.8331678 C50.8417258,38.8331678 48.8705227,39.6501419 47.4176744,41.104186 L46.5683721,41.9534884 L51.8586047,47.2437209 L50.3953488,48.6967442 L45.1153488,43.4065116 L42.6595349,45.8623256 L47.9293023,51.1627907 L46.4762791,52.5953488 L41.2065116,47.3153488 L39.16,49.3618605 L44.4502326,54.6418605 L42.9767442,56.1051163 L37.6967442,50.8148837 L35.3739535,53.1376744 C32.4047237,56.1730454 32.4326246,61.033055 35.4365092,64.0341348 C38.4403937,67.0352146 43.3004273,67.0585756 46.3330233,64.0865116 L52.3497674,58.0697674 L58.3665116,52.0530233 C61.3877151,49.0286601 61.3877151,44.1285492 58.3665116,41.104186" id="Path" fill="#CFBCA9"></path>
                                <path d="M52.9023256,38.8834875 C56.0335302,38.8860344 58.85539,40.7732703 60.0533372,43.6662567 C61.2512844,46.5592432 60.5896842,49.8889334 58.3767442,52.104186 L52.36,58.1209302 L46.3432558,64.1376744 C43.3106598,67.1097384 38.4506263,67.0863774 35.4467417,64.0852976 C32.4428572,61.0842178 32.4149562,56.2242082 35.384186,53.1888372 L37.7069767,50.8660465 L42.9767442,56.1051163 L44.44,54.6418605 L39.1497674,49.3618605 L41.1962791,47.3153488 L46.4660465,52.5953488 L47.9293023,51.1627907 L42.6595349,45.8930233 L45.1153488,43.4372093 L50.3953488,48.7274419 L51.8586047,47.2744186 L46.5683721,41.9534884 L47.4176744,41.104186 C48.8793972,39.6664527 50.8520921,38.8678057 52.9023256,38.8834875 M52.9023256,37.492093 C50.4748936,37.4849872 48.1457685,38.4505422 46.4353488,40.1730233 L45.5860465,41.0223256 L45.1153488,41.4930233 L45.1153488,41.4930233 L44.092093,42.5162791 L41.6362791,44.972093 L41.1655814,45.4427907 L40.1423256,46.4660465 L38.095814,48.5125581 L37.6251163,48.9832558 L36.6018605,50.0065116 L34.4018605,52.1860465 C31.169289,55.8048888 31.3289877,61.3192645 34.7655722,64.7449651 C38.2021568,68.1706658 43.7170112,68.3128717 47.3255814,65.0688372 L53.3423256,59.052093 L59.3488372,53.0353488 C61.9570407,50.4234732 62.7376947,46.498894 61.3275615,43.0877147 C59.9174283,39.6765353 56.5934716,37.4487441 52.9023256,37.4409302" id="Shape" fill="#FFFFFF"></path>
                                <path d="M54.8874419,62.5618605 C55.4504455,61.9296151 55.9507742,61.2442333 56.3813953,60.5153488 C57.9342816,57.8927434 58.5949147,54.8373154 58.264186,51.8074419 C58.2239729,51.4217612 57.9810563,51.086831 57.6269404,50.9288162 C57.2728246,50.7708015 56.8613082,50.8137084 56.5474055,51.0413744 C56.2335028,51.2690403 56.0649031,51.6468775 56.1051163,52.0325581 C56.4140905,54.7836972 55.7517055,57.556303 54.2325581,59.8706977 C53.9445762,60.3045483 53.6229673,60.7151128 53.2706977,61.0986047" id="Path" fill="#FFFFFF"></path>
                                <path d="M55.6548837,63.2576744 L54.1097674,61.8660465 C56.5133542,59.1532466 57.6319187,55.5365549 57.1795349,51.9404651 L57.0874419,51.9404651 C57.4177163,54.9268083 56.6938026,57.9346695 55.0409302,60.4437209 C54.7313554,60.9169795 54.3894562,61.3682865 54.0176744,61.7944186 L52.4930233,60.372093 C52.807736,60.0203243 53.0983203,59.6476927 53.3627907,59.2567442 C54.749899,57.1415515 55.3510048,54.6067678 55.0613953,52.0939535 C54.9596722,50.9100091 55.8369859,49.8677697 57.0209302,49.7660465 C58.2048746,49.6643234 59.2471141,50.541637 59.3488372,51.7255814 C59.6878193,54.9819297 58.9703089,58.2609521 57.3023256,61.0781395 C56.8344738,61.8547641 56.2930705,62.5846306 55.6855814,63.2576744" id="Path" fill="#FFFFFF"></path>
                                <path d="M56.3813953,60.535814 C57.9342816,57.9132086 58.5949147,54.8577805 58.264186,51.827907 C58.2239729,51.4422263 57.9810563,51.1072961 57.6269404,50.9492813 C57.2728246,50.7912666 56.8613082,50.8341735 56.5474055,51.0618395 C56.2335028,51.2895054 56.0649031,51.6673426 56.1051163,52.0530233 C56.4092105,54.7973942 55.7470259,57.5619247 54.2325581,59.8706977 C53.9448509,60.3020362 53.6268399,60.712373 53.2809302,61.0986047 L53.2809302,61.0986047 L52.9125581,61.4976744 L54.5190698,62.9302326 C54.652093,62.8074419 54.7748837,62.6846512 54.8976744,62.5516279 L54.8976744,62.5516279 L54.8976744,62.5516279 C55.4493941,61.937097 55.9426867,61.2725223 56.3711628,60.5665116" id="Path" fill="#A99079"></path>
                                <path d="M77.7674419,40.1832558 L77.7674419,40.1832558 C77.7674419,35.362709 81.6752672,31.4548837 86.495814,31.4548837 L103.891163,31.4548837 C108.71171,31.4548837 112.619535,35.362709 112.619535,40.1832558 C112.619535,45.0038026 108.71171,48.9116279 103.891163,48.9116279 L86.495814,48.9116279 C81.6752672,48.9116279 77.7674419,45.0038026 77.7674419,40.1832558" id="Path" fill="#FFFFFF"></path>
                                <path d="M89.8009302,40.1832558 C89.8009302,41.9944186 88.3274419,41.0325581 86.5162791,41.0325581 C84.7051163,41.0325581 83.2316279,41.9944186 83.2316279,40.1832558 C83.2316279,38.3691931 84.7022163,36.8986047 86.5162791,36.8986047 C88.3303418,36.8986047 89.8009302,38.3691931 89.8009302,40.1832558" id="Path" fill="#D95353"></path>
                                <path d="M107.032558,40.1832558 C107.032558,41.9944186 105.55907,41.0325581 103.747907,41.0325581 C101.936744,41.0325581 100.463256,41.9944186 100.463256,40.1832558 C100.463256,38.3691931 101.933844,36.8986047 103.747907,36.8986047 C105.56197,36.8986047 107.032558,38.3691931 107.032558,40.1832558" id="Path" fill="#D95353"></path>
                                <rect id="Rectangle" fill="#553C2C" x="0" y="78.2893023" width="190.253953" height="8.69767442"></rect>
                            </g>
                        </g>
                    </g>
                </g>
            </g>
        </g>
    </g>
</svg>