<?xml version="1.0" encoding="UTF-8"?>
<svg width="37px" height="30px" viewBox="0 0 37 30" version="1.1" xmlns="http://www.w3.org/2000/svg" xmlns:xlink="http://www.w3.org/1999/xlink">
    <!-- Generator: Sketch 64 (93537) - https://sketch.com -->
    <title>Shape</title>
    <desc>Created with Sketch.</desc>
    <g id="Page-1" stroke="none" stroke-width="1" fill="none" fill-rule="evenodd">
        <g id="DelmoLanding" transform="translate(-1253.000000, -68.000000)" fill="#92A7E9">
            <g id="Header" transform="translate(150.000000, 41.000000)">
                <g id="Twitter-GitHub" transform="translate(1033.000000, 0.000000)">
                    <g id="twitter-logo-(1)" transform="translate(45.000000, 0.000000)">
                        <path d="M57.6450176,31.7276886 C59.1431316,31.5538765 60.6412455,31.1367275 62,30.5457665 C60.9896441,32.0753128 59.7005693,33.3962846 58.1676155,34.5086819 C58.2024554,34.8215784 58.2024554,35.1344402 58.2024554,35.4820643 C58.2024554,45.4588778 50.6073661,57 36.6365826,57 C32.3512103,57 28.3446265,55.748553 25,53.5932832 C25.5922776,53.662808 26.1845552,53.6975705 26.8116727,53.6975705 C30.3653383,53.6975705 33.640285,52.4808859 36.2185043,50.4646657 C32.908648,50.3951409 30.1214593,48.1703463 29.1459432,45.1807785 C29.5988614,45.2850657 30.0866194,45.3198281 30.5743774,45.3198281 C31.2711746,45.3198281 31.933132,45.2503033 32.5602494,45.0764912 C29.1111034,44.3812429 26.4981139,41.3221503 26.4981139,37.6373341 L26.4981139,37.5678093 C27.5084699,38.124008 28.6930251,38.4716321 29.9124201,38.5063945 C27.8917083,37.1506603 26.5329538,34.8215784 26.5329538,32.2143624 C26.5329538,30.8238658 26.9161922,29.5376564 27.5781496,28.3904967 C31.3408543,32.9791356 36.9153015,36.0035006 43.221316,36.3163623 C43.0819565,35.7601637 43.0471167,35.1692026 43.0471167,34.5782067 C43.0471167,30.4067168 46.4614229,27 50.6422059,27 C52.8022772,27 54.7881492,27.9038228 56.1817435,29.3986067 C57.8888966,29.0509826 59.52637,28.4252591 60.9896441,27.5561987 C60.4322063,29.3290819 59.2128113,30.7891034 57.6450176,31.7276886 Z" id="Shape"></path>
                    </g>
                </g>
            </g>
        </g>
    </g>
</svg>